<svg xmlns="http://www.w3.org/2000/svg" width="640" height="260" viewBox="0 0 640 260"><rect width="640" height="260" fill="#f1f7f6"/><rect x="224.0" y="96.0" width="19" height="19" rx="3" fill="#288875"/><rect x="224.0" y="120.0" width="19" height="19" rx="3" fill="#288875"/><rect x="248.0" y="96.0" width="19" height="19" rx="3" fill="#288875"/><rect x="248.0" y="120.0" width="19" height="19" rx="3" fill="#288875"/><rect x="272.0" y="96.0" width="19" height="19" rx="3" fill="#288875"/><rect x="272.0" y="120.0" width="19" height="19" rx="3" fill="#288875"/><rect x="296.0" y="96.0" width="19" height="19" rx="3" fill="#288875"/><rect x="296.0" y="120.0" width="19" height="19" rx="3" fill="#288875"/><rect x="320.0" y="96.0" width="19" height="19" rx="3" fill="#288875"/><rect x="320.0" y="120.0" width="19" height="19" rx="3" fill="#288875"/><rect x="344.0" y="96.0" width="19" height="19" rx="3" fill="#288875"/><rect x="344.0" y="120.0" width="19" height="19" rx="3" fill="#288875"/><rect x="368.0" y="96.0" width="19" height="19" rx="3" fill="#288875"/><rect x="368.0" y="120.0" width="19" height="19" rx="3" fill="#288875"/><rect x="392.0" y="96.0" width="19" height="19" rx="3" fill="#288875"/><rect x="392.0" y="120.0" width="19" height="19" rx="3" fill="#288875"/></svg>